# xmcd CD database file
#
# Track frame offsets:
#	150
#	17498
#	45368
#	90788
#	108393
#	133096
#	170880
#	199134
#	219165
#	243077
#	281675
#	297607
#
# Disc length: 4170 seconds
#
# Revision: 0
# Processed by: cddbd v1.5.1PL2 Copyright (c) Steve Scherf et al.
# Submitted via: CDex 1.51
#
DISCID=a510480c
DTITLE=Giorgio Zagnoni - Welcome Bolling
DYEAR=2002
DGENRE=Jazz
TTITLE0=Blue melody
TTITLE1=Baroque and blue
TTITLE2=Espiegle
TTITLE3=Fugace
TTITLE4=Javanaise
TTITLE5=Sentimentale
TTITLE6=Jazzy
TTITLE7=Irlandaise
TTITLE8=Vagabonde
TTITLE9=Amoreuse
TTITLE10=Veloce
TTITLE11=Latin flute
EXTD=YEAR: 2002
EXTT0=
EXTT1=
EXTT2=
EXTT3=
EXTT4=
EXTT5=
EXTT6=
EXTT7=
EXTT8=
EXTT9=
EXTT10=
EXTT11=
PLAYORDER=
